<?xml version="1.0" encoding="utf-8"?>
<!-- Generator: Adobe Illustrator 16.0.0, SVG Export Plug-In . SVG Version: 6.00 Build 0)  -->
<!DOCTYPE svg PUBLIC "-//W3C//DTD SVG 1.1//EN" "http://www.w3.org/Graphics/SVG/1.1/DTD/svg11.dtd">
<svg version="1.1" id="Layer_1" xmlns="http://www.w3.org/2000/svg" xmlns:xlink="http://www.w3.org/1999/xlink" x="0px" y="0px"
	 width="776.76px" height="194.803px" viewBox="52.665 359.38 776.76 194.803"
	 enable-background="new 52.665 359.38 776.76 194.803" xml:space="preserve">
<g>
	<path fill="#FFFFFF" d="M455.52,552.917h39.822V413.875H455.52V552.917z M455.52,397.899v-35.784h39.822v35.784H455.52z"/>
	<path fill="#FFFFFF" d="M607.093,552.657v-84.062c0-10.721-1.784-17.958-5.361-21.723c-3.573-3.753-9.683-5.633-18.337-5.633
		c-18.991,0-28.486,10.616-28.486,31.875v79.542h-36.676V413.873h34.979v20.305c4.33-7.897,10.063-13.867,17.21-17.91
		c7.146-4.048,16.36-6.063,27.646-6.063c6.578,0,12.69,0.985,18.33,2.962c5.646,1.971,10.482,4.933,14.534,8.885
		c4.038,3.949,7.238,8.787,9.592,14.528c2.352,5.737,3.528,12.372,3.528,19.889v96.188L607.093,552.657L607.093,552.657z"/>
	<path fill="#FFFFFF" d="M784.624,499.775c-0.926,7.941-3.178,15.135-6.783,21.6c-3.597,6.462-8.167,11.993-13.707,16.608
		c-5.532,4.621-11.861,8.219-18.963,10.795c-7.111,2.591-14.808,3.879-23.118,3.879c-9.23,0-17.681-1.523-25.33-4.564
		c-7.668-3.045-14.266-7.663-19.803-13.851c-5.533-6.177-9.827-13.844-12.874-22.98c-3.048-9.125-4.564-19.787-4.564-31.975
		c0-12.179,1.517-22.709,4.564-31.563c3.048-8.864,7.341-16.104,12.874-21.734c5.537-5.626,12.226-9.828,20.078-12.602
		c7.844-2.764,16.559-4.148,26.165-4.148c8.862,0,16.929,1.201,24.224,3.601c7.291,2.394,13.655,5.907,19.104,10.515
		c5.441,4.612,9.735,10.157,12.875,16.609c3.138,6.471,4.98,13.661,5.535,21.607h-36.266c-0.918-7.021-3.74-12.512-8.447-16.48
		c-4.704-3.964-10.473-5.944-17.302-5.944c-3.885,0-7.473,0.646-10.804,1.936c-3.319,1.288-6.227,3.452-8.716,6.5
		c-2.492,3.048-4.477,7.11-5.954,12.184c-1.474,5.081-2.214,11.313-2.214,18.695c0,14.947,2.675,26.019,8.027,33.213
		c5.352,7.206,11.539,10.809,18.55,10.809c7.015,0,13.019-1.94,18.003-5.817c4.98-3.884,7.842-9.506,8.579-16.891H784.624z"/>
	<path fill="#FFFFFF" d="M52.665,532.809c0-13.682,2.58-25.396,7.721-35.154c5.145-9.755,14.36-20.561,27.66-32.41
		c13.077-11.855,22.133-21.979,27.177-30.371c5.032-8.385,7.561-17.135,7.561-26.256c0-8.207-1.558-13.902-4.666-17.1
		c-3.105-3.181-7.679-4.782-13.67-4.782c-12.217,0-18.332,6.288-18.332,18.872v20.514H52.665v-18.596
		c0-15.498,4.5-27.398,13.511-35.697c9.009-8.295,22.083-12.447,39.236-12.447c17.148,0,30.235,4.152,39.243,12.447
		c9.001,8.298,13.502,20.199,13.502,35.697c0,11.668-3.271,23.071-9.809,34.193c-6.542,11.121-17.85,23.891-33.931,38.289
		c-10.513,9.485-17.582,17.192-21.227,23.115c-3.652,5.931-5.47,12.271-5.47,19.013v4.11h67.218v27.349H52.665V532.809z"/>
	<path fill="#FFFFFF" d="M183.031,540.331c-9.221-8.375-13.836-20.236-13.836-35.555v-97.252c0-15.319,4.615-27.173,13.836-35.56
		c9.212-8.388,22.514-12.584,39.881-12.584c17.36,0,30.655,4.196,39.882,12.584c9.211,8.387,13.827,20.24,13.827,35.56v97.252
		c0,15.318-4.616,27.18-13.827,35.555c-9.226,8.396-22.522,12.586-39.882,12.586C205.544,552.917,192.243,548.728,183.031,540.331z
		 M241.246,506.688V405.607c0-12.583-6.119-18.871-18.335-18.871c-12.224,0-18.331,6.288-18.331,18.871v101.081
		c0,12.586,6.106,18.877,18.331,18.877C235.128,525.565,241.246,519.274,241.246,506.688z"/>
	<path fill="#FFFFFF" d="M354.533,518.853h-67.532V491.5l64.32-129.386h38.598V491.5h16.725v27.353H389.92v34.74h-35.385
		L354.533,518.853L354.533,518.853z M354.533,491.501v-74.674h-0.642l-34.731,74.674H354.533z"/>
	<path fill="#FFFFFF" d="M789.603,554.183v-35.784h39.822v35.784H789.603z"/>
</g>
</svg>
