<?xml version="1.0" encoding="utf-8"?>
<!-- Generator: Adobe Illustrator 16.0.0, SVG Export Plug-In . SVG Version: 6.00 Build 0)  -->
<!DOCTYPE svg PUBLIC "-//W3C//DTD SVG 1.1//EN" "http://www.w3.org/Graphics/SVG/1.1/DTD/svg11.dtd">
<svg version="1.1" id="Layer_1" xmlns="http://www.w3.org/2000/svg" xmlns:xlink="http://www.w3.org/1999/xlink" x="0px" y="0px"
	 width="33.857px" height="56.282px" viewBox="0 0 33.857 56.282" enable-background="new 0 0 33.857 56.282" xml:space="preserve">
<g>
	<circle fill="#FFFFFF" cx="16.596" cy="31.599" r="2.229"/>
	<circle fill="#FFFFFF" cx="11.758" cy="34.98" r="2.229"/>
	<circle fill="#FFFFFF" cx="7.702" cy="39.244" r="2.229"/>
	<circle fill="#FFFFFF" cx="4.737" cy="43.702" r="2.229"/>
	<circle fill="#FFFFFF" cx="2.89" cy="48.748" r="2.229"/>
	<circle fill="#FFFFFF" cx="2.229" cy="54.053" r="2.229"/>
	<path fill="#FFFFFF" d="M33.705,51.688L26.42,30.374l6.661-19.49c0.502-1.467-0.282-3.064-1.75-3.566
		c-0.414-0.141-0.835-0.17-1.241-0.122c-0.098-0.009-0.19-0.029-0.292-0.029h-3.345c0.748-0.76,1.211-1.803,1.211-2.954
		C27.664,1.887,25.778,0,23.45,0c-2.326,0-4.213,1.887-4.213,4.213c0,1.151,0.464,2.193,1.212,2.954h-3.346
		c-0.1,0-0.194,0.02-0.291,0.029c-0.407-0.049-0.829-0.02-1.242,0.122c-1.467,0.502-2.25,2.099-1.749,3.566l6.66,19.49
		l-7.284,21.314c-0.502,1.469,0.281,3.064,1.749,3.566c0.301,0.103,0.607,0.152,0.909,0.152c1.168,0,2.258-0.734,2.658-1.902
		l4.938-14.448l4.939,14.448c0.397,1.168,1.488,1.902,2.656,1.902c0.302,0,0.608-0.051,0.909-0.152
		C33.423,54.752,34.207,53.157,33.705,51.688z"/>
</g>
</svg>
